<svg xmlns="http://www.w3.org/2000/svg" width="18.82" height="17.9" viewBox="0 0 18.82 17.9">
  <defs>
    <style>
      .cls-1 {
        fill: #9fa2a5;
        fill-rule: evenodd;
      }
    </style>
  </defs>
  <path id="tel" class="cls-1" d="M1071.87,4523.75a0.822,0.822,0,0,1-.28.76l-2.64,2.5a1.517,1.517,0,0,1-.47.33,2.47,2.47,0,0,1-.57.17,0.833,0.833,0,0,0-.12.01c-0.07,0-.15.01-0.26,0.01a10.351,10.351,0,0,1-1.22-.13,9.388,9.388,0,0,1-2.07-.6,18.356,18.356,0,0,1-2.78-1.45,25.882,25.882,0,0,1-5.62-5.16,17.51,17.51,0,0,1-1.47-2.2,12.382,12.382,0,0,1-.84-1.84,9.4,9.4,0,0,1-.37-1.42,3.879,3.879,0,0,1-.08-0.94c0.01-.23.02-0.36,0.02-0.38a1.436,1.436,0,0,1,.18-0.54,1.543,1.543,0,0,1,.33-0.45l2.65-2.52a0.935,0.935,0,0,1,.64-0.26,0.83,0.83,0,0,1,.46.14,1.616,1.616,0,0,1,.34.35l2.13,3.85a0.886,0.886,0,0,1,.1.66,1.273,1.273,0,0,1-.34.61l-0.98.93a0.312,0.312,0,0,0-.07.12,0.441,0.441,0,0,0-.03.14,3.052,3.052,0,0,0,.36.91,9.181,9.181,0,0,0,.74,1.11,12.913,12.913,0,0,0,1.41,1.51,13.368,13.368,0,0,0,1.59,1.35,9.877,9.877,0,0,0,1.17.71,3.747,3.747,0,0,0,.72.28l0.24,0.04a0.451,0.451,0,0,0,.13-0.03,0.262,0.262,0,0,0,.13-0.06l1.14-1.1a1.265,1.265,0,0,1,.83-0.3,1.035,1.035,0,0,1,.54.11h0.02l3.84,2.16A0.938,0.938,0,0,1,1071.87,4523.75Z" transform="translate(-1053.06 -4509.63)"/>
</svg>
